<svg width="424" height="85" viewBox="0 0 424 85" fill="none" xmlns="http://www.w3.org/2000/svg">
<g clip-path="url(#clip0_7_159)">
<path d="M94.1599 51.9293C94.1599 60.5061 93.5057 63.3065 91.7612 65.3736C89.8569 67.1335 87.3662 68.1068 84.7833 68.1006L85.4375 73.2026C89.4409 73.2581 93.3217 71.8106 96.3259 69.1416C99.4514 65.8868 100.542 61.3858 100.542 54.4805V22.05H94.1453V51.9733L94.1599 51.9293Z" fill="#4E4E4E"/>
<path d="M141.869 48.0214C141.869 51.7161 141.869 54.9708 142.16 57.7711H136.563L136.199 51.9066H136.054C134.876 53.9563 133.177 55.6521 131.133 56.8194C129.089 57.9869 126.773 58.5836 124.424 58.5481C118.9 58.5481 112.3 55.4399 112.3 42.8901V21.9832H118.696V41.8197C118.696 48.6226 120.732 53.1967 126.532 53.1967C128.352 53.1632 130.121 52.5889 131.618 51.5456C133.115 50.5024 134.274 49.0367 134.949 47.3324C135.337 46.2666 135.534 45.1396 135.531 44.0042V22.0126H141.927V48.0214H141.869Z" fill="#4E4E4E"/>
<path d="M153.924 33.6771C153.924 29.1028 153.779 25.4082 153.633 21.9482H159.376L159.666 28.0765H159.812C161.068 25.8808 162.895 24.0729 165.096 22.8481C167.297 21.6233 169.788 21.0283 172.299 21.1271C180.789 21.1271 187.185 28.4577 187.185 39.3069C187.185 52.1647 179.495 58.513 171.194 58.513C169.064 58.6032 166.946 58.1329 165.05 57.1485C163.154 56.164 161.544 54.6992 160.379 52.8979H160.233V72.3239H153.91V33.6184L153.924 33.6771ZM160.248 43.2069C160.265 44.0984 160.362 44.9867 160.539 45.8605C161.06 48.0277 162.287 49.9557 164.024 51.3354C165.761 52.7152 167.908 53.4667 170.119 53.4695C176.879 53.4695 180.789 47.8544 180.789 39.6589C180.789 32.4895 177.082 26.3612 170.337 26.3612C168.068 26.4252 165.886 27.2521 164.137 28.7105C162.388 30.1689 161.173 32.1751 160.684 34.4101C160.428 35.2725 160.281 36.1642 160.248 37.0638V43.1922V43.2069Z" fill="#4E4E4E"/>
<path d="M198.501 22.0166L206.191 43.1433C206.991 45.5038 207.863 48.3188 208.444 50.4739H208.59C209.244 48.3334 209.971 45.5918 210.843 43.0114L217.821 22.0313H224.581L215.001 47.5269C210.421 59.7838 207.31 66.0733 202.949 69.9146C200.746 71.9818 198.044 73.4323 195.114 74.1223L193.515 68.6538C195.565 67.9648 197.465 66.8846 199.111 65.4723C201.438 63.5119 203.279 61.0323 204.49 58.2296C204.749 57.7456 204.921 57.2196 204.999 56.6756C204.942 56.0893 204.794 55.5156 204.563 54.9748L191.567 22.0313H198.544L198.501 22.0166Z" fill="#4E4E4E"/>
<path d="M241.369 11.7334V21.9962H250.513V26.9517H241.369V46.2164C241.369 50.6147 242.605 53.1657 246.167 53.1657C247.416 53.1854 248.663 53.0374 249.874 52.7259L250.164 57.6081C248.345 58.2542 246.422 58.5526 244.495 58.4877C243.216 58.5667 241.936 58.3637 240.744 57.8927C239.551 57.4217 238.475 56.6942 237.59 55.7607C235.772 53.8402 235.118 50.6587 235.118 46.4511V26.9517H229.667V21.9962H235.118V13.4194L241.369 11.7334Z" fill="#4E4E4E"/>
<path d="M262.298 41.0638C262.443 49.8604 267.967 53.4818 274.349 53.4818C277.685 53.5874 281.005 52.9569 284.074 51.6344L285.165 56.2821C281.487 57.8399 277.523 58.5944 273.535 58.4959C262.719 58.4959 256.25 51.2533 256.25 40.4626C256.25 29.6721 262.501 21.1833 272.735 21.1833C284.205 21.1833 287.273 31.4461 287.273 38.0289C287.262 39.0441 287.189 40.0576 287.055 41.0638H262.341H262.298ZM281.036 36.4162C281.109 32.2817 279.364 25.8455 272.183 25.8455C265.714 25.8455 262.894 31.9006 262.385 36.4162H281.051H281.036Z" fill="#4E4E4E"/>
<path d="M296.574 33.1642C296.574 28.9564 296.501 25.3351 296.283 22.0071H301.88L302.098 29.0297H302.389C303.988 24.2209 307.84 21.2007 312.114 21.2007C312.727 21.1917 313.338 21.2656 313.932 21.4206V27.549C313.216 27.3915 312.484 27.3177 311.751 27.3291C307.244 27.3291 304.061 30.8037 303.189 35.6712C303.009 36.673 302.911 37.6881 302.898 38.7061V57.7656H296.574V33.1642Z" fill="#4E4E4E"/>
<path d="M61.9893 5.25675C62.0316 6.23617 61.7848 7.2062 61.2803 8.04417C60.7758 8.88212 60.0362 9.55034 59.1551 9.96427C58.2739 10.3782 57.2908 10.5193 56.3302 10.3696C55.3695 10.2199 54.4745 9.78625 53.7582 9.12344C53.042 8.46064 52.5368 7.59847 52.3066 6.64604C52.0763 5.6936 52.1314 4.6937 52.4647 3.77282C52.7981 2.85192 53.3948 2.05145 54.1793 1.47265C54.9638 0.893852 55.901 0.562741 56.8722 0.521208C58.1732 0.465568 59.443 0.933069 60.4024 1.82101C61.3619 2.70894 61.9327 3.94469 61.9893 5.25675Z" fill="#767677"/>
<path d="M33.341 63.5235C20.2575 63.5235 8.83118 58.7293 2.89998 51.6333C5.10896 58.0006 9.22591 63.518 14.681 67.4217C20.1361 71.3253 26.6595 73.4223 33.3483 73.4223C40.0371 73.4223 46.5605 71.3253 52.0156 67.4217C57.4706 63.518 61.5876 58.0006 63.7966 51.6333C57.8508 58.7293 46.4246 63.5235 33.341 63.5235Z" fill="#F37726"/>
<path d="M33.3388 17.3655C46.4225 17.3655 57.8488 22.1597 63.78 29.2556C61.571 22.8883 57.454 17.371 51.999 13.4673C46.5438 9.56358 40.0205 7.46661 33.3316 7.46661C26.6428 7.46661 20.1195 9.56358 14.6643 13.4673C9.20923 17.371 5.09228 22.8883 2.8833 29.2556C8.82905 22.1743 20.2553 17.3655 33.3388 17.3655Z" fill="#F37726"/>
<path d="M15.3799 77.3224C15.4335 78.5573 15.1227 79.7804 14.4866 80.837C13.8506 81.8935 12.918 82.736 11.8069 83.2578C10.6959 83.7795 9.45626 83.957 8.24511 83.7678C7.03394 83.5786 5.90568 83.0313 5.00314 82.195C4.10062 81.3588 3.46443 80.2712 3.1751 79.0701C2.88578 77.869 2.95635 76.6083 3.37787 75.4477C3.79939 74.287 4.5529 73.2786 5.54301 72.5502C6.53313 71.8217 7.71531 71.4058 8.93989 71.3553C10.5779 71.2878 12.1756 71.8779 13.3828 72.9965C14.59 74.115 15.3081 75.6707 15.3799 77.3224Z" fill="#989798"/>
<path d="M4.39116 15.7606C3.67269 15.7919 2.96116 15.6075 2.34663 15.2308C1.73209 14.8541 1.24219 14.302 0.938927 13.6443C0.635665 12.9867 0.532676 12.2531 0.642995 11.5364C0.753314 10.8197 1.07198 10.1522 1.55866 9.61822C2.04535 9.08426 2.67816 8.70792 3.37701 8.53684C4.07586 8.36576 4.80933 8.40762 5.48458 8.65714C6.15983 8.90665 6.74651 9.35259 7.17034 9.93851C7.59418 10.5244 7.83613 11.224 7.86556 11.9487C7.90496 12.9185 7.56128 13.8646 6.90993 14.5792C6.25858 15.2938 5.35274 15.7187 4.39116 15.7606Z" fill="#6F7070"/>
<path d="M330.869 11.5V58H325.269V11.5H330.869ZM329.537 40.3809L327.206 40.29C327.226 38.0498 327.559 35.9811 328.205 34.084C328.851 32.1667 329.759 30.5016 330.93 29.0889C332.1 27.6761 333.493 26.5863 335.107 25.8193C336.742 25.0322 338.549 24.6387 340.526 24.6387C342.141 24.6387 343.594 24.8607 344.886 25.3047C346.177 25.7285 347.277 26.4147 348.186 27.3633C349.114 28.3118 349.82 29.543 350.305 31.0566C350.789 32.5501 351.031 34.3766 351.031 36.5361V58H345.4V36.4756C345.4 34.7601 345.148 33.3877 344.644 32.3584C344.139 31.3089 343.402 30.5521 342.434 30.0879C341.465 29.6035 340.274 29.3613 338.861 29.3613C337.469 29.3613 336.197 29.654 335.047 30.2393C333.917 30.8245 332.938 31.6318 332.11 32.6611C331.303 33.6904 330.667 34.8711 330.203 36.2031C329.759 37.515 329.537 38.9076 329.537 40.3809ZM379.458 50.4316V25.2441H385.089V58H379.73L379.458 50.4316ZM380.518 43.5293L382.849 43.4688C382.849 45.6484 382.617 47.6667 382.152 49.5234C381.708 51.36 380.982 52.9544 379.973 54.3066C378.964 55.6589 377.642 56.7184 376.007 57.4854C374.372 58.2321 372.384 58.6055 370.043 58.6055C368.449 58.6055 366.985 58.3734 365.653 57.9092C364.341 57.445 363.211 56.7285 362.263 55.7598C361.314 54.791 360.577 53.5296 360.053 51.9756C359.548 50.4215 359.296 48.5547 359.296 46.375V25.2441H364.896V46.4355C364.896 47.9089 365.058 49.1299 365.381 50.0986C365.724 51.0472 366.178 51.804 366.743 52.3691C367.328 52.9141 367.974 53.2975 368.681 53.5195C369.407 53.7415 370.154 53.8525 370.921 53.8525C373.302 53.8525 375.189 53.3984 376.582 52.4902C377.975 51.5618 378.974 50.3206 379.579 48.7666C380.205 47.1924 380.518 45.4466 380.518 43.5293ZM393.596 11.5H399.227V51.6426L398.742 58H393.596V11.5ZM421.356 41.3496V41.9854C421.356 44.3669 421.074 46.5768 420.509 48.6152C419.944 50.6335 419.116 52.3893 418.026 53.8828C416.937 55.3763 415.604 56.5368 414.03 57.3643C412.456 58.1917 410.65 58.6055 408.611 58.6055C406.533 58.6055 404.706 58.2523 403.132 57.5459C401.578 56.8193 400.266 55.7799 399.196 54.4277C398.127 53.0755 397.269 51.4408 396.623 49.5234C395.997 47.6061 395.563 45.4466 395.321 43.0449V40.2598C395.563 37.8379 395.997 35.6683 396.623 33.751C397.269 31.8337 398.127 30.1989 399.196 28.8467C400.266 27.4743 401.578 26.4349 403.132 25.7285C404.686 25.002 406.492 24.6387 408.551 24.6387C410.609 24.6387 412.436 25.0423 414.03 25.8496C415.625 26.6367 416.957 27.7669 418.026 29.2402C419.116 30.7135 419.944 32.4795 420.509 34.5381C421.074 36.5765 421.356 38.847 421.356 41.3496ZM415.726 41.9854V41.3496C415.726 39.7148 415.574 38.181 415.271 36.748C414.969 35.2949 414.484 34.0234 413.818 32.9336C413.152 31.8236 412.274 30.9557 411.185 30.3301C410.095 29.6842 408.753 29.3613 407.158 29.3613C405.745 29.3613 404.514 29.6035 403.465 30.0879C402.436 30.5723 401.558 31.2282 400.831 32.0557C400.104 32.863 399.509 33.7913 399.045 34.8408C398.601 35.8701 398.268 36.9398 398.046 38.0498V45.3457C398.369 46.7585 398.894 48.1208 399.62 49.4326C400.367 50.7243 401.356 51.7839 402.587 52.6113C403.838 53.4388 405.382 53.8525 407.219 53.8525C408.732 53.8525 410.024 53.5498 411.094 52.9443C412.184 52.3187 413.062 51.4609 413.728 50.3711C414.414 49.2812 414.918 48.0199 415.241 46.5869C415.564 45.154 415.726 43.6201 415.726 41.9854Z" fill="#F37726"/>
</g>
<defs>
<clipPath id="clip0_7_159">
<rect width="424" height="85" fill="white"/>
</clipPath>
</defs>
</svg>
